<?xml version="1.0" encoding="UTF-8" standalone="no"?>
<!DOCTYPE svg PUBLIC "-//W3C//DTD SVG 1.1//EN" "http://www.w3.org/Graphics/SVG/1.1/DTD/svg11.dtd">
<svg width="100%" height="100%" viewBox="0 0 272 67" version="1.1" xmlns="http://www.w3.org/2000/svg" xmlns:xlink="http://www.w3.org/1999/xlink" xml:space="preserve" xmlns:serif="http://www.serif.com/" style="fill-rule:evenodd;clip-rule:evenodd;stroke-linejoin:round;stroke-miterlimit:2;">
    <g transform="matrix(1,0,0,1,-484.558,-124.414)">
        <g transform="matrix(0.637898,0,0,0.637898,344.154,98.3456)">
            <g transform="matrix(95.2247,0,0,95.2247,211.456,125.583)">
                <path d="M0.102,-0.091L0.091,-0.089C0.1,-0.019 0.142,0.01 0.207,0.01C0.331,0.01 0.363,-0.145 0.381,-0.23L0.43,-0.443L0.692,-0.443L0.694,-0.479L0.436,-0.469L0.453,-0.542C0.462,-0.584 0.49,-0.738 0.495,-0.792C0.65,-0.795 0.787,-0.802 0.898,-0.802C1.071,-0.802 1.182,-0.785 1.204,-0.708C1.26,-0.708 1.297,-0.742 1.297,-0.793C1.297,-0.856 1.229,-0.89 1.102,-0.89C0.912,-0.89 0.609,-0.815 0.364,-0.815C0.327,-0.815 0.244,-0.815 0.202,-0.819L0.204,-0.789C0.216,-0.789 0.253,-0.79 0.29,-0.79C0.318,-0.788 0.328,-0.777 0.328,-0.751C0.328,-0.737 0.325,-0.719 0.321,-0.695L0.227,-0.12C0.218,-0.069 0.185,-0.046 0.154,-0.046C0.129,-0.046 0.105,-0.062 0.102,-0.091Z" style="fill-rule:nonzero;"/>
            </g>
            <g transform="matrix(95.2247,0,0,95.2247,272.506,125.583)">
                <path d="M0.214,-0.48C0.175,-0.48 0.144,-0.455 0.114,-0.396L0.068,-0.307L0.077,-0.302L0.113,-0.373C0.128,-0.402 0.148,-0.418 0.165,-0.418C0.178,-0.418 0.188,-0.407 0.188,-0.381C0.188,-0.371 0.187,-0.358 0.183,-0.344L0.161,-0.258C0.151,-0.216 0.144,-0.171 0.144,-0.13C0.144,-0.053 0.17,0.009 0.252,0.009C0.293,0.009 0.343,-0.012 0.397,-0.056L0.501,-0.142C0.501,-0.038 0.544,0.008 0.603,0.008C0.645,0.008 0.689,-0.019 0.716,-0.072L0.745,-0.127L0.736,-0.132L0.708,-0.077C0.693,-0.048 0.668,-0.03 0.649,-0.03C0.633,-0.03 0.62,-0.043 0.62,-0.073C0.62,-0.081 0.621,-0.09 0.623,-0.101L0.702,-0.453L0.702,-0.454C0.702,-0.464 0.668,-0.469 0.635,-0.469L0.555,-0.469C0.55,-0.469 0.545,-0.467 0.544,-0.463L0.512,-0.258C0.509,-0.235 0.505,-0.206 0.503,-0.175L0.381,-0.075C0.36,-0.058 0.329,-0.042 0.306,-0.042C0.28,-0.042 0.272,-0.064 0.272,-0.092C0.272,-0.122 0.281,-0.158 0.291,-0.184L0.31,-0.236C0.325,-0.275 0.333,-0.316 0.333,-0.353C0.333,-0.424 0.301,-0.48 0.214,-0.48Z" style="fill-rule:nonzero;"/>
            </g>
            <g transform="matrix(95.2247,0,0,95.2247,340.158,125.583)">
                <path d="M0.243,-0.474C0.189,-0.474 0.141,-0.459 0.108,-0.396L0.08,-0.341L0.089,-0.337L0.117,-0.392C0.132,-0.421 0.149,-0.438 0.161,-0.438C0.17,-0.438 0.176,-0.429 0.176,-0.405C0.176,-0.396 0.175,-0.383 0.172,-0.368L0.114,-0.021C0.114,-0.021 0.113,-0.015 0.113,-0.015C0.113,-0.005 0.147,-0 0.18,-0L0.239,-0C0.242,-0 0.248,-0.002 0.249,-0.005L0.301,-0.211C0.306,-0.233 0.315,-0.263 0.322,-0.293L0.443,-0.394C0.465,-0.412 0.492,-0.43 0.512,-0.43C0.534,-0.43 0.54,-0.411 0.54,-0.386C0.54,-0.277 0.486,-0.212 0.486,-0.049C0.486,0.054 0.537,0.2 0.732,0.2C0.858,0.2 0.926,0.166 0.926,0.103C0.926,0.07 0.891,0.048 0.837,0.048C0.837,0.12 0.793,0.159 0.712,0.159C0.618,0.159 0.581,0.125 0.581,0.07C0.581,0.053 0.584,0.034 0.591,0.014L0.665,-0.211C0.68,-0.259 0.697,-0.315 0.697,-0.362C0.697,-0.428 0.67,-0.479 0.58,-0.479C0.538,-0.479 0.481,-0.457 0.428,-0.413L0.329,-0.331C0.331,-0.346 0.332,-0.361 0.332,-0.375C0.332,-0.43 0.312,-0.474 0.243,-0.474Z" style="fill-rule:nonzero;"/>
            </g>
            <g transform="matrix(95.2247,0,0,95.2247,407.067,125.583)">
                <path d="M0.234,-0.158C0.443,-0.16 0.625,-0.227 0.625,-0.358C0.625,-0.437 0.552,-0.479 0.414,-0.479C0.225,-0.479 0.083,-0.377 0.083,-0.184C0.083,-0.066 0.172,0.01 0.318,0.01C0.424,0.01 0.516,-0.029 0.575,-0.096L0.557,-0.112C0.518,-0.064 0.435,-0.023 0.363,-0.023C0.273,-0.023 0.233,-0.057 0.233,-0.143C0.233,-0.148 0.233,-0.153 0.234,-0.158ZM0.235,-0.183C0.248,-0.324 0.323,-0.455 0.409,-0.455C0.462,-0.455 0.49,-0.426 0.49,-0.371C0.49,-0.237 0.392,-0.183 0.235,-0.183Z" style="fill-rule:nonzero;"/>
            </g>
            <g transform="matrix(95.2247,0,0,95.2247,464.443,125.583)">
                <path d="M0.243,-0.474C0.189,-0.474 0.141,-0.459 0.108,-0.396L0.08,-0.341L0.089,-0.337L0.117,-0.392C0.132,-0.421 0.149,-0.438 0.161,-0.438C0.17,-0.438 0.176,-0.429 0.176,-0.405C0.176,-0.396 0.175,-0.383 0.172,-0.368L0.113,-0.016C0.113,-0.014 0.113,-0.012 0.113,-0.011C0.113,-0.002 0.142,0.001 0.175,0.001L0.238,-0C0.238,-0 0.248,-0.002 0.249,-0.005L0.301,-0.211C0.333,-0.339 0.414,-0.451 0.477,-0.451C0.516,-0.451 0.542,-0.417 0.548,-0.354C0.553,-0.352 0.558,-0.351 0.563,-0.351C0.599,-0.351 0.646,-0.385 0.646,-0.431C0.646,-0.481 0.606,-0.514 0.547,-0.514C0.472,-0.514 0.375,-0.44 0.331,-0.354C0.332,-0.362 0.332,-0.367 0.332,-0.375C0.332,-0.43 0.312,-0.474 0.243,-0.474Z" style="fill-rule:nonzero;"/>
            </g>
            <g transform="matrix(95.2247,0,0,95.2247,519.681,125.583)">
                <path d="M0.661,-0.095L0.652,-0.1L0.629,-0.053C0.613,-0.019 0.571,-0.009 0.51,-0.009C0.432,-0.009 0.321,-0.026 0.195,-0.026L0.179,-0.026L0.18,-0.029C0.197,-0.039 0.221,-0.06 0.254,-0.091L0.473,-0.292C0.584,-0.394 0.666,-0.497 0.666,-0.599C0.666,-0.699 0.583,-0.752 0.43,-0.752C0.286,-0.752 0.135,-0.654 0.135,-0.518C0.135,-0.441 0.191,-0.378 0.276,-0.355L0.29,-0.378C0.211,-0.398 0.16,-0.454 0.16,-0.522C0.16,-0.639 0.292,-0.728 0.426,-0.728C0.493,-0.728 0.53,-0.699 0.53,-0.644C0.53,-0.559 0.469,-0.485 0.341,-0.351L0.086,-0.085C0.022,-0.019 0.025,-0.013 0.022,0L0.185,0C0.357,0 0.448,0.066 0.517,0.066C0.562,0.066 0.597,0.04 0.639,-0.048L0.661,-0.095Z" style="fill:rgb(92,6,140);fill-rule:nonzero;"/>
            </g>
            <g transform="matrix(95.2247,0,0,95.2247,581.986,125.583)">
                <path d="M0.053,-0.137L0.432,-0.137L0.415,-0L0.552,-0L0.56,-0.034L0.585,-0.137L0.655,-0.137L0.66,-0.161L0.59,-0.161C0.605,-0.225 0.621,-0.293 0.626,-0.322L0.51,-0.302C0.466,-0.294 0.452,-0.303 0.436,-0.172L0.435,-0.161L0.092,-0.161C0.279,-0.388 0.582,-0.482 0.674,-0.821C0.615,-0.782 0.504,-0.742 0.475,-0.742C0.472,-0.742 0.47,-0.742 0.469,-0.743C0.427,-0.572 0.25,-0.414 0.067,-0.175L0.053,-0.137Z" style="fill:rgb(92,6,140);fill-rule:nonzero;"/>
            </g>
        </g>
    </g>
</svg>
