<?xml version="1.0" encoding="UTF-8" standalone="no"?>
<!DOCTYPE svg PUBLIC "-//W3C//DTD SVG 1.1//EN" "http://www.w3.org/Graphics/SVG/1.1/DTD/svg11.dtd">
<svg width="100%" height="100%" viewBox="0 0 1085 2878" version="1.1" xmlns="http://www.w3.org/2000/svg" xmlns:xlink="http://www.w3.org/1999/xlink" xml:space="preserve" xmlns:serif="http://www.serif.com/" style="fill-rule:evenodd;clip-rule:evenodd;stroke-linecap:round;stroke-linejoin:round;stroke-miterlimit:1.5;">
    <g transform="matrix(1,0,0,1,-2455.93,-311.788)">
        <g transform="matrix(6.49589,0,0,4.16667,0,0)">
            <g transform="matrix(0.641431,0,0,1,222.401,-65.6832)">
                <g>
                    <g transform="matrix(0.24,0,0,0.24,-346.726,65.6832)">
                        <path d="M2479.08,2824.03C2479.69,2821.02 2481.27,2818.24 2483.64,2816.15L2580.86,2730.36C2580.77,2730.33 2580.73,2730.32 2580.73,2730.31C2589.36,2723.84 2595.89,2711.1 2595.89,2711.1L2596.04,2711.1L2610.94,2701.11C2613.06,2703.99 2616.06,2706.23 2619.63,2707.41C2708.79,2736.88 3269.07,2922.02 3390.46,2962.13C3395.85,2963.91 3401.76,2963 3406.36,2959.68C3409.35,2957.53 3411.55,2954.54 3412.72,2951.15L3424.76,2934.4C3426.9,2931.42 3428.06,2927.84 3428.08,2924.17L3428.6,2825.76C3434.53,2827.74 3440.47,2829.71 3446.42,2831.68L3449.67,2832.76L3503.3,2848.74C3505.43,2849.38 3507.34,2850.5 3508.92,2851.97C3517.41,2855.42 3519.38,2869.78 3515.72,2877.71C3515.66,2877.83 3390.9,3058.29 3334.12,3140.42C3317.99,3163.76 3287.89,3172.88 3261.51,3162.42C3101.09,3098.83 2563.2,2885.62 2489.26,2856.31C2484.1,2854.27 2480.59,2849.43 2480.25,2843.89L2479.46,2831.21C2479.48,2831.28 2479.51,2831.34 2479.53,2831.41C2479.31,2830.76 2479.14,2830.09 2479.02,2829.4C2478.71,2827.68 2478.72,2825.94 2479.03,2824.27L2479.02,2824.08L2479.08,2824.03ZM3276.25,3142.18C3277,3142.21 3277.74,3142.22 3278.48,3142.22L3278.16,3142.22C3277.63,3142.22 3277.1,3142.21 3276.57,3142.19L3276.25,3142.18ZM3279.93,3142.21C3279.65,3142.22 3279.37,3142.22 3279.09,3142.22C3279.37,3142.22 3279.65,3142.22 3279.93,3142.21ZM3282.71,3142.09C3281.94,3142.14 3281.17,3142.18 3280.39,3142.2L3280.71,3142.19C3281.38,3142.17 3282.04,3142.13 3282.71,3142.09ZM3275.29,3142.13C3275.08,3142.12 3274.87,3142.11 3274.66,3142.1L3274.98,3142.12L3275.29,3142.13ZM3272.43,3141.91C3272.57,3141.92 3272.71,3141.94 3272.86,3141.95L3272.75,3141.94L3272.43,3141.91ZM3286.07,3141.77C3285.97,3141.78 3285.86,3141.79 3285.76,3141.81C3285.86,3141.79 3285.97,3141.78 3286.07,3141.77ZM3271.47,3141.8L3271.6,3141.82L3271.47,3141.8ZM3270.19,3141.64L3270.5,3141.68L3270.19,3141.64L3269.95,3141.6L3270.19,3141.64ZM3289.19,3141.3C3288.7,3141.39 3288.21,3141.47 3287.71,3141.54C3288.31,3141.45 3288.91,3141.36 3289.5,3141.25L3289.19,3141.3ZM3291.05,3140.95L3290.78,3141L3291.05,3140.95ZM3294.72,3140.06C3293.91,3140.28 3293.1,3140.49 3292.28,3140.68L3292.59,3140.61C3293.41,3140.41 3294.22,3140.2 3295.03,3139.98L3294.72,3140.06ZM3264.47,3140.55L3264.7,3140.61L3264.47,3140.55L3264.25,3140.5L3264.47,3140.55ZM3295.63,3139.81L3295.35,3139.89L3295.63,3139.81L3295.94,3139.72L3295.63,3139.81ZM3299.23,3138.64C3298.48,3138.91 3297.73,3139.16 3296.98,3139.4C3297.63,3139.19 3298.28,3138.97 3298.93,3138.75L3299.23,3138.64ZM3258.66,3138.85C3258.91,3138.94 3259.17,3139.03 3259.43,3139.11L3259.12,3139.01C3258.96,3138.95 3258.81,3138.9 3258.66,3138.85ZM3305.33,3136.07C3304.77,3136.34 3304.22,3136.6 3303.66,3136.85C3304.32,3136.56 3304.97,3136.25 3305.61,3135.93L3305.33,3136.07ZM3321.39,3124.73C3321.16,3124.96 3320.93,3125.18 3320.7,3125.4C3320.93,3125.18 3321.16,3124.96 3321.39,3124.73ZM3323.42,3122.64C3322.8,3123.31 3322.16,3123.97 3321.51,3124.62C3322.08,3124.05 3322.64,3123.47 3323.2,3122.87L3323.42,3122.64ZM3323.79,3122.23C3323.89,3122.12 3323.98,3122.02 3324.08,3121.91L3323.86,3122.16L3323.79,3122.23ZM3327.4,3117.86C3326.81,3118.65 3326.2,3119.42 3325.57,3120.18C3326.26,3119.34 3326.94,3118.48 3327.6,3117.59L3327.4,3117.86ZM3328.94,3115.7C3328.69,3116.07 3328.44,3116.43 3328.18,3116.79C3328.5,3116.34 3328.82,3115.89 3329.13,3115.43L3328.94,3115.7ZM3360.69,3068.35C3360.24,3069.04 3359.78,3069.73 3359.33,3070.42L3357.44,3073.25C3358.99,3070.91 3360.53,3068.6 3362.05,3066.3L3360.69,3068.35ZM3367.37,3058.24C3366.76,3059.17 3366.14,3060.11 3365.52,3061.05L3366.06,3060.23L3367.37,3058.24ZM3391.93,3019.67C3391.72,3020.03 3391.5,3020.4 3391.27,3020.78C3391.5,3020.4 3391.72,3020.03 3391.93,3019.67ZM3394.14,3015.8C3393.75,3016.51 3393.32,3017.28 3392.84,3018.11L3393.12,3017.62C3393.58,3016.81 3394,3016.07 3394.36,3015.39L3394.14,3015.8ZM3395.98,3012.14C3395.88,3012.38 3395.76,3012.65 3395.62,3012.94L3395.75,3012.66C3395.88,3012.38 3395.98,3012.14 3396.07,3011.91L3395.98,3012.14ZM3396.43,3010.94L3396.66,3010.51C3396.72,3010.4 3396.78,3010.29 3396.84,3010.18L3396.66,3010.51L3396.43,3010.94ZM3398.74,3006.11C3398.52,3006.63 3398.31,3007.12 3398.11,3007.56C3398.26,3007.23 3398.41,3006.87 3398.58,3006.49L3398.74,3006.11ZM3402.16,2994.99C3402.01,2995.72 3401.85,2996.44 3401.68,2997.13C3401.85,2996.44 3402.01,2995.72 3402.16,2994.99ZM3403.25,2987.19C3403.15,2988.64 3402.99,2990.03 3402.8,2991.38C3402.99,2990.03 3403.15,2988.64 3403.25,2987.19ZM3403.39,2981.54C3403.4,2981.8 3403.4,2982.05 3403.41,2982.31C3403.41,2982.05 3403.4,2981.8 3403.39,2981.54ZM3454.8,2920.42C3453.16,2920.55 3451.84,2920.58 3450.97,2920.59L3450.56,2920.59C3451.39,2920.59 3452.87,2920.57 3454.8,2920.42ZM3449.99,2920.58C3450.07,2920.58 3450.15,2920.58 3450.23,2920.58L3450.53,2920.59C3450.05,2920.58 3449.8,2920.57 3449.8,2920.57L3449.99,2920.58ZM3456.98,2920.2C3456.6,2920.24 3456.24,2920.28 3455.89,2920.32C3456.24,2920.28 3456.6,2920.24 3456.98,2920.2ZM3460.52,2919.67L3460.06,2919.75L3460.52,2919.67L3460.58,2919.66L3460.52,2919.67ZM3469.24,2917.29C3468.85,2917.44 3468.46,2917.58 3468.07,2917.71C3468.45,2917.58 3468.85,2917.44 3469.24,2917.29ZM3471.66,2916.31C3470.99,2916.61 3470.32,2916.88 3469.66,2917.13C3470.32,2916.88 3470.99,2916.6 3471.66,2916.31ZM3476.36,2913.88C3474.98,2914.71 3473.58,2915.44 3472.18,2916.08C3473.47,2915.49 3474.77,2914.82 3476.04,2914.07L3476.36,2913.88ZM3479.75,2911.57C3479.48,2911.78 3479.21,2911.98 3478.93,2912.18C3479.1,2912.05 3479.28,2911.93 3479.45,2911.8L3479.75,2911.57ZM3490.34,2897.44C3489.58,2898.45 3488.85,2899.43 3488.14,2900.38L3490.34,2897.44ZM3505.51,2877.36C3502.94,2880.74 3500.3,2884.24 3497.72,2887.66L3500.31,2884.22C3501.18,2883.07 3502.05,2881.92 3502.92,2880.77L3505.51,2877.36ZM3510.86,2870.32C3510.82,2870.37 3510.78,2870.43 3510.74,2870.49C3510.78,2870.43 3510.82,2870.37 3510.86,2870.32ZM3511.95,2868.47C3511.77,2868.82 3511.59,2869.17 3511.38,2869.51C3511.62,2869.11 3511.84,2868.69 3512.04,2868.27L3511.95,2868.47ZM3512.53,2867.1C3512.49,2867.21 3512.44,2867.33 3512.4,2867.44C3512.44,2867.33 3512.49,2867.21 3512.53,2867.1ZM3512.93,2865.78C3512.87,2866.02 3512.81,2866.26 3512.73,2866.49C3512.81,2866.26 3512.87,2866.02 3512.93,2865.78ZM3513.06,2865.27L3513.05,2865.3L3513.06,2865.27L3513.07,2865.2L3513.06,2865.27ZM3513.36,2861.48C3513.38,2861.93 3513.39,2862.37 3513.37,2862.82C3513.38,2862.45 3513.38,2862.07 3513.37,2861.7L3513.36,2861.48ZM3512.97,2858.9C3513.06,2859.24 3513.13,2859.58 3513.18,2859.92C3513.13,2859.58 3513.06,2859.24 3512.97,2858.9ZM3512.76,2858.12C3512.78,2858.18 3512.8,2858.25 3512.82,2858.32L3512.76,2858.12C3512.73,2858.05 3512.71,2857.98 3512.69,2857.91L3512.76,2858.12ZM3512.6,2857.63L3512.62,2857.7L3512.62,2857.69L3512.6,2857.63ZM3512.52,2857.41L3512.55,2857.49L3512.54,2857.48L3512.52,2857.41ZM3512.44,2857.19L3512.47,2857.28L3512.47,2857.27L3512.44,2857.19ZM3512.35,2856.99L3512.39,2857.08L3512.38,2857.06L3512.35,2856.99ZM3512.27,2856.78L3512.31,2856.87L3512.3,2856.85L3512.27,2856.78ZM3512.18,2856.58L3512.22,2856.67L3512.21,2856.64L3512.18,2856.58ZM3512.09,2856.38L3512.13,2856.47L3512.12,2856.44L3512.09,2856.38ZM3512,2856.18L3512.04,2856.27L3512.03,2856.24L3512,2856.18ZM3511.9,2855.98L3511.95,2856.07L3511.93,2856.04L3511.9,2855.98ZM3511.8,2855.78L3511.85,2855.88L3511.83,2855.84L3511.8,2855.78ZM3511.7,2855.59L3511.75,2855.68L3511.73,2855.64L3511.7,2855.59ZM3511.6,2855.4L3511.64,2855.49L3511.62,2855.44L3511.6,2855.4ZM3511.49,2855.21L3511.54,2855.3L3511.51,2855.25L3511.49,2855.21ZM3511.38,2855.02L3511.43,2855.11L3511.4,2855.06L3511.38,2855.02ZM3511.27,2854.84L3511.32,2854.92L3511.28,2854.87L3511.27,2854.84ZM3511.15,2854.66L3511.2,2854.73L3511.17,2854.68L3511.15,2854.66ZM3511.03,2854.47L3511.08,2854.55L3511.05,2854.49L3511.03,2854.47ZM3510.91,2854.29L3510.96,2854.36L3510.92,2854.31L3510.91,2854.29ZM3510.79,2854.12L3510.83,2854.18L3510.8,2854.13L3510.79,2854.12ZM3510.66,2853.94L3510.7,2853.99L3510.67,2853.95L3510.66,2853.94ZM3510.53,2853.77L3510.56,2853.8L3510.54,2853.77L3510.53,2853.77ZM3510.4,2853.6L3510.41,2853.6L3510.4,2853.6ZM3509.54,2852.59L3509.54,2852.6L3509.54,2852.59ZM3509.39,2852.43L3509.39,2852.44L3509.39,2852.43ZM3509.23,2852.28L3509.24,2852.28L3509.23,2852.28ZM3509.08,2852.12L3509.08,2852.12L3509.08,2852.12ZM2487.73,2840.15C2487.8,2840.18 2487.87,2840.2 2487.94,2840.23L2487.73,2840.15ZM2487.56,2840.08L2487.67,2840.12L2487.53,2840.07L2487.56,2840.08ZM2487.37,2840L2487.45,2840.03L2487.33,2839.98L2487.37,2840ZM2487.18,2839.91L2487.24,2839.94L2487.12,2839.89L2487.18,2839.91ZM2487,2839.83L2487.04,2839.85L2486.92,2839.79L2487,2839.83ZM2486.82,2839.74L2486.85,2839.76L2486.71,2839.69L2486.82,2839.74ZM2486.46,2839.56C2486.52,2839.59 2486.58,2839.63 2486.65,2839.66L2486.46,2839.56ZM2486.28,2839.46L2486.45,2839.56L2486.26,2839.46L2486.28,2839.46ZM2486.1,2839.37L2486.2,2839.42L2486.07,2839.35L2486.1,2839.37ZM2485.93,2839.27L2486,2839.31L2485.88,2839.24L2485.93,2839.27ZM2485.75,2839.16L2485.81,2839.2L2485.7,2839.13L2485.75,2839.16ZM2485.58,2839.06L2485.62,2839.08L2485.51,2839.01L2485.58,2839.06ZM2485.41,2838.95L2485.44,2838.97L2485.31,2838.89L2485.41,2838.95ZM2485.08,2838.73C2485.14,2838.77 2485.2,2838.81 2485.26,2838.85L2485.08,2838.73ZM2484.91,2838.62L2485.07,2838.73L2484.9,2838.61L2484.91,2838.62ZM2484.75,2838.5L2484.84,2838.57L2484.72,2838.49L2484.75,2838.5ZM2484.59,2838.39L2484.66,2838.44L2484.55,2838.36L2484.59,2838.39ZM2484.43,2838.27L2484.48,2838.3L2484.38,2838.22L2484.43,2838.27ZM2484.27,2838.14L2484.31,2838.17L2484.2,2838.09L2484.27,2838.14ZM2484.11,2838.02L2484.14,2838.04L2484.02,2837.95L2484.11,2838.02ZM2483.81,2837.76C2483.86,2837.81 2483.91,2837.86 2483.97,2837.9L2483.81,2837.76ZM2483.66,2837.64L2483.8,2837.75L2483.64,2837.62L2483.66,2837.64ZM2483.51,2837.5L2483.59,2837.58L2483.49,2837.48L2483.51,2837.5ZM2483.36,2837.37L2483.42,2837.42L2483.33,2837.34L2483.36,2837.37ZM2483.22,2837.23L2483.26,2837.28L2483.17,2837.19L2483.22,2837.23ZM2483.08,2837.09L2483.11,2837.12L2483.01,2837.03L2483.08,2837.09ZM2482.93,2836.95L2482.95,2836.97L2482.85,2836.87L2482.93,2836.95ZM2482.66,2836.67C2482.71,2836.72 2482.76,2836.77 2482.8,2836.82L2482.66,2836.67ZM2482.52,2836.52L2482.64,2836.65L2482.51,2836.51L2482.52,2836.52ZM2482.39,2836.37L2482.46,2836.45L2482.37,2836.35L2482.39,2836.37ZM2482.26,2836.22L2482.32,2836.29L2482.23,2836.19L2482.26,2836.22ZM2482.13,2836.07L2482.17,2836.12L2482.09,2836.02L2482.13,2836.07ZM2482.01,2835.92L2482.03,2835.95L2481.95,2835.85L2482.01,2835.92ZM2481.88,2835.77L2481.9,2835.79L2481.81,2835.68L2481.88,2835.77ZM2481.64,2835.45C2481.68,2835.51 2481.72,2835.56 2481.77,2835.62L2481.64,2835.45ZM2481.52,2835.29L2481.62,2835.43L2481.51,2835.28L2481.52,2835.29ZM2481.41,2835.13L2481.47,2835.22L2481.39,2835.1L2481.41,2835.13ZM2481.29,2834.97L2481.34,2835.03L2481.27,2834.93L2481.29,2834.97ZM2481.18,2834.8L2481.22,2834.85L2481.15,2834.75L2481.18,2834.8ZM2481.08,2834.64L2481.1,2834.67L2481.03,2834.56L2481.08,2834.64ZM2480.97,2834.47L2480.98,2834.49L2480.91,2834.37L2480.97,2834.47ZM2480.76,2834.13C2480.8,2834.19 2480.83,2834.25 2480.87,2834.31L2480.76,2834.13ZM2480.66,2833.96L2480.74,2834.09L2480.66,2833.94L2480.66,2833.96ZM2480.57,2833.78L2480.62,2833.87L2480.55,2833.75L2480.57,2833.78ZM2480.47,2833.61L2480.51,2833.68L2480.45,2833.57L2480.47,2833.61ZM2480.38,2833.43L2480.41,2833.48L2480.35,2833.37L2480.38,2833.43ZM2480.29,2833.25L2480.31,2833.29L2480.25,2833.18L2480.29,2833.25ZM2480.2,2833.07L2480.21,2833.1L2480.15,2832.97L2480.2,2833.07ZM2480.03,2832.71C2480.06,2832.77 2480.09,2832.84 2480.12,2832.9L2480.03,2832.71ZM2479.95,2832.53L2480.01,2832.66L2479.95,2832.51L2479.95,2832.53ZM2479.88,2832.34L2479.91,2832.43L2479.86,2832.31L2479.88,2832.34ZM2479.8,2832.16L2479.83,2832.23L2479.78,2832.11L2479.8,2832.16ZM2479.73,2831.97L2479.75,2832.02L2479.7,2831.91L2479.73,2831.97ZM2479.66,2831.78L2479.67,2831.82L2479.63,2831.7L2479.66,2831.78ZM2479.59,2831.59L2479.6,2831.61L2479.55,2831.49L2479.59,2831.59ZM3300.12,3138.32C3300.31,3138.24 3300.51,3138.17 3300.7,3138.09L3301,3137.97C3300.61,3138.13 3300.21,3138.28 3299.82,3138.43L3300.12,3138.32ZM3301.58,3137.74C3302.23,3137.48 3302.88,3137.2 3303.52,3136.91C3302.78,3137.24 3302.04,3137.56 3301.29,3137.86L3301.58,3137.74ZM3306.18,3135.65C3308.24,3134.61 3310.25,3133.44 3312.2,3132.16C3310.16,3133.5 3308.06,3134.71 3305.89,3135.79L3306.18,3135.65ZM3319.99,3126.07C3317.62,3128.25 3315.11,3130.22 3312.46,3131.99L3312.73,3131.81C3315.36,3130.03 3317.87,3128.05 3320.23,3125.85L3319.99,3126.07ZM3397.67,3008.51L3397.53,3008.8L3397.67,3008.51ZM3402.36,2994C3402.46,2993.44 3402.56,2992.87 3402.66,2992.29L3402.6,2992.64C3402.51,2993.21 3402.4,2993.78 3402.3,2994.33L3402.36,2994ZM3477.61,2913.09C3477.71,2913.03 3477.81,2912.96 3477.92,2912.89L3478.22,2912.68C3477.92,2912.89 3477.61,2913.1 3477.3,2913.3L3477.61,2913.09ZM3482.98,2907.26C3481.93,2908.65 3481.1,2909.76 3480.55,2910.5L3482.76,2907.55L3482.98,2907.26ZM3509.27,2872.42C3508.86,2872.95 3508.45,2873.49 3508.04,2874.04L3509.27,2872.42C3509.68,2871.89 3510.08,2871.36 3510.48,2870.84L3509.27,2872.42Z" style="fill:rgb(157,156,156);stroke:rgb(157,156,156);stroke-width:45.73px;"/>
                    </g>
                    <g>
                        <g transform="matrix(0.24,0,0,0.24,-346.726,65.6832)">
                            <path d="M3412.21,343.862L3412.38,343.809C3412.38,343.809 3425.76,353.854 3434.38,360.325C3438.86,363.687 3441.48,368.97 3441.45,374.569C3440.61,534.452 3428.75,2796.21 3428.08,2924.17C3428.06,2927.84 3426.9,2931.42 3424.76,2934.4L3412.72,2951.15C3413.36,2949.32 3413.7,2947.37 3413.71,2945.38C3414.37,2695.57 3419.84,607.855 3420.5,358.897C3420.51,353.246 3417.83,347.929 3413.27,344.586C3412.92,344.33 3412.57,344.089 3412.21,343.862Z" style="fill:rgb(157,156,156);stroke:rgb(157,156,156);stroke-width:45.73px;"/>
                        </g>
                        <g transform="matrix(0.243874,0,0,0.24,-688.128,0)">
                            <path d="M3977.93,2981.09C3970.88,2978.72 3966.08,2972.07 3965.99,2964.52C3963.85,2798.99 3941.34,1056.86 3939.16,888.08C3939.06,880.284 3943.99,873.339 3951.31,870.982C4043.16,841.376 4621.05,655.102 4743.4,615.664C4748.7,613.956 4754.49,614.923 4758.97,618.266C4763.45,621.609 4766.1,626.926 4766.08,632.577C4765.44,881.535 4760.05,2969.25 4759.4,3219.06C4759.39,3224.73 4756.7,3230.05 4752.17,3233.37C4747.64,3236.68 4741.82,3237.59 4736.52,3235.81C4617.06,3195.7 4065.68,3010.56 3977.93,2981.09Z" style="fill:none;stroke:rgb(157,156,156);stroke-width:45.36px;"/>
                        </g>
                        <g transform="matrix(0.214538,0,0,0.214538,-559.354,25.8624)">
                            <path d="M3988.35,2310.76L3963.86,917.712L4702.82,706.728L4701.49,2413.48L3988.35,2310.76Z" style="fill:none;stroke:rgb(157,156,156);stroke-width:51.16px;"/>
                        </g>
                    </g>
                </g>
            </g>
        </g>
    </g>
</svg>
